<svg width="17" height="18" viewBox="0 0 17 18" fill="none" xmlns="http://www.w3.org/2000/svg">
<path d="M8.00164 2.29066V0.500665C8.00164 0.0506648 7.46164 -0.169335 7.15164 0.150665L4.35164 2.94066C4.15164 3.14066 4.15164 3.45066 4.35164 3.65066L7.14164 6.44066C7.46164 6.75066 8.00164 6.53066 8.00164 6.08066V4.29066C11.3116 4.29066 14.0016 6.98066 14.0016 10.2907C14.0016 13.0107 12.1716 15.3107 9.69164 16.0407C9.27164 16.1607 9.00164 16.5607 9.00164 16.9907C9.00164 17.6407 9.62164 18.1507 10.2516 17.9607C11.9106 17.476 13.3677 16.4665 14.4044 15.0836C15.4412 13.7007 16.0016 12.019 16.0016 10.2907C16.0016 5.87066 12.4216 2.29066 8.00164 2.29066ZM2.00164 10.2907C2.00164 8.95066 2.44164 7.71066 3.19164 6.70066C3.49164 6.30066 3.45164 5.75067 3.10164 5.39067C2.68164 4.97067 1.96164 5.01066 1.60164 5.49066C0.825613 6.52383 0.311698 7.72977 0.103954 9.00511C-0.10379 10.2804 0.000834137 11.5871 0.408858 12.8132C0.816881 14.0392 1.51613 15.148 2.44667 16.0445C3.37721 16.9411 4.51127 17.5986 5.75164 17.9607C6.38164 18.1507 7.00164 17.6407 7.00164 16.9907C7.00164 16.5607 6.73164 16.1607 6.31164 16.0407C3.83164 15.3107 2.00164 13.0107 2.00164 10.2907Z" fill="#130523"/>
</svg>
